<svg width="144" height="30" viewBox="0 0 144 30" fill="none" xmlns="http://www.w3.org/2000/svg">
<path d="M117.196 5.76886H128.82V8.55552H120.319V12.8088H128.374V15.5955H120.319V20.2888H129.266V23.0755H117.196V5.76886Z" fill="url(#paint0_linear_1_3485)"/>
<path d="M135.424 16.7688L131.31 11.3422H134.928L137.308 14.8622L139.886 11.3422H143.281L139.216 16.7688L144 23.0755H140.381L137.283 18.871L134.16 23.0755H130.641L135.424 16.7688Z" fill="url(#paint1_linear_1_3485)"/>
<path d="M46.6961 5.78279H49.3793L56.8874 23.006H53.3426L51.7179 19.0651H44.1606L42.5851 23.006H39.1142L46.6961 5.78279ZM50.6348 16.4378L47.9516 9.43178L45.2191 16.4378H50.6348Z" fill="white"/>
<path d="M58.8269 11.3292H61.6332V13.2024H61.6825C61.9615 12.6186 62.3882 12.1158 62.9625 11.6941C63.5369 11.2563 64.3165 11.0373 65.3011 11.0373C66.0888 11.0373 66.7535 11.1671 67.2951 11.4266C67.853 11.686 68.3043 12.0266 68.649 12.4483C68.9936 12.8699 69.2398 13.3565 69.3875 13.9079C69.5352 14.4593 69.609 15.035 69.609 15.6351V23.006H66.655V17.0946C66.655 16.7703 66.6386 16.4135 66.6058 16.0243C66.573 15.6188 66.4827 15.2458 66.335 14.9053C66.2037 14.5485 65.9904 14.2565 65.695 14.0295C65.3996 13.7862 64.9975 13.6646 64.4888 13.6646C63.9964 13.6646 63.578 13.7457 63.2333 13.9079C62.9051 14.07 62.6261 14.289 62.3964 14.5647C62.183 14.8404 62.0271 15.1566 61.9286 15.5134C61.8302 15.8702 61.7809 16.2432 61.7809 16.6324V23.006H58.8269V11.3292Z" fill="white"/>
<path d="M80.6208 21.4005H80.5469C80.1202 22.0654 79.5787 22.5519 78.9222 22.86C78.2658 23.152 77.5437 23.2979 76.756 23.2979C76.2144 23.2979 75.681 23.2249 75.1559 23.079C74.6471 22.933 74.1876 22.7141 73.7773 22.4222C73.3835 22.1302 73.0635 21.7654 72.8173 21.3275C72.5711 20.8896 72.4481 20.3787 72.4481 19.7949C72.4481 19.1624 72.5629 18.6272 72.7927 18.1893C73.0224 17.7352 73.326 17.3622 73.7035 17.0703C74.0974 16.7622 74.5487 16.5189 75.0574 16.3405C75.5662 16.1621 76.0913 16.0324 76.6329 15.9513C77.1908 15.854 77.7488 15.7972 78.3068 15.781C78.8648 15.7486 79.3899 15.7324 79.8823 15.7324H80.6208V15.4161C80.6208 14.6863 80.3664 14.143 79.8577 13.7862C79.3489 13.4132 78.7007 13.2267 77.9129 13.2267C77.2893 13.2267 76.7067 13.3402 76.1652 13.5673C75.6236 13.7781 75.1559 14.07 74.762 14.4431L73.2112 12.9105C73.8676 12.2455 74.6307 11.7671 75.5005 11.4752C76.3867 11.1833 77.2975 11.0373 78.233 11.0373C79.0699 11.0373 79.7756 11.1346 80.35 11.3292C80.9244 11.5076 81.4003 11.7428 81.7777 12.0347C82.1552 12.3266 82.4424 12.6672 82.6393 13.0564C82.8527 13.4294 83.0004 13.8106 83.0824 14.1998C83.1809 14.589 83.2383 14.9701 83.2547 15.3431C83.2712 15.6999 83.2794 16.0162 83.2794 16.2919V23.006H80.6208V21.4005ZM80.4484 17.7758H79.833C79.4228 17.7758 78.9632 17.792 78.4545 17.8244C77.9458 17.8569 77.4616 17.938 77.0021 18.0677C76.559 18.1812 76.1816 18.3596 75.8698 18.6029C75.5579 18.8299 75.402 19.1543 75.402 19.576C75.402 19.8517 75.4595 20.0868 75.5744 20.2814C75.7057 20.4598 75.8698 20.6139 76.0667 20.7436C76.2636 20.8734 76.4852 20.9707 76.7313 21.0356C76.9775 21.0842 77.2237 21.1085 77.4698 21.1085C78.4873 21.1085 79.234 20.8734 79.7099 20.4031C80.2023 19.9165 80.4484 19.2597 80.4484 18.4326V17.7758Z" fill="white"/>
<path d="M86.7803 4.61511H89.7343V23.006H86.7803V4.61511Z" fill="white"/>
<path d="M91.7991 11.3292H95.0485L98.3471 19.43H98.3964L101.35 11.3292H104.427L98.8394 25.5116C98.6261 26.063 98.3881 26.5415 98.1256 26.9469C97.8794 27.3686 97.584 27.7173 97.2394 27.993C96.8947 28.2849 96.4845 28.4957 96.0085 28.6254C95.549 28.7714 94.9911 28.8444 94.3346 28.8444C93.5633 28.8444 92.8084 28.7471 92.0699 28.5525L92.4391 25.9252C92.6689 26.0063 92.9068 26.0712 93.153 26.1198C93.4156 26.1847 93.6782 26.2171 93.9407 26.2171C94.3018 26.2171 94.6054 26.1847 94.8516 26.1198C95.0977 26.0549 95.3029 25.9495 95.467 25.8036C95.6475 25.6738 95.7952 25.4954 95.9101 25.2684C96.0249 25.0575 96.148 24.7981 96.2793 24.4899L96.8455 23.1033L91.7991 11.3292Z" fill="white"/>
<path d="M105.059 13.8106V11.3292H107.496V7.94785H110.45V11.3292H113.7V13.8106H110.45V18.9191C110.45 19.503 110.557 19.9652 110.77 20.3058C111 20.6463 111.443 20.8166 112.1 20.8166C112.362 20.8166 112.649 20.7923 112.961 20.7436C113.273 20.6788 113.519 20.5815 113.7 20.4517V22.9087C113.388 23.0547 113.002 23.152 112.543 23.2006C112.1 23.2655 111.706 23.2979 111.361 23.2979C110.573 23.2979 109.925 23.2087 109.416 23.0303C108.924 22.8682 108.53 22.6168 108.235 22.2762C107.956 21.9194 107.759 21.4815 107.644 20.9626C107.545 20.4436 107.496 19.8436 107.496 19.1624V13.8106H105.059Z" fill="white"/>
<path d="M17.5543 20.1911L35.0353 29.9981H0.07335L17.5543 20.1911Z" fill="#22272C"/>
<path d="M17.5103 0L35.0206 30L17.5103 20L17.5103 0Z" fill="url(#paint2_linear_1_3485)"/>
<path d="M0 30L17.5103 0L17.5103 20L0 30Z" fill="url(#paint3_linear_1_3485)"/>
<path d="M17.5103 0L18.497 13.1859H16.5255L17.5103 0Z" fill="black"/>
<path d="M34.9587 29.9605L22.8525 24.3553L23.8177 22.6548L34.9587 29.9605Z" fill="black"/>
<path d="M0.0570622 29.9584L12.1103 24.2425L11.1292 22.551L0.0570622 29.9584Z" fill="black"/>
<path d="M17.5574 10.3928L25.9305 24.7381L17.5575 19.9564L17.5574 10.3928Z" fill="url(#paint4_linear_1_3485)"/>
<path d="M9.18446 24.7381L17.5574 10.3928L17.5575 19.9564L9.18446 24.7381Z" fill="url(#paint5_linear_1_3485)"/>
<path d="M17.5575 19.9564L25.9305 24.7381L9.18446 24.7381L17.5575 19.9564Z" fill="url(#paint6_linear_1_3485)"/>
<defs>
<linearGradient id="paint0_linear_1_3485" x1="139.361" y1="9.01385" x2="139.361" y2="20.191" gradientUnits="userSpaceOnUse">
<stop offset="0.184683" stop-color="#BC025F"/>
<stop offset="1" stop-color="#C471ED"/>
</linearGradient>
<linearGradient id="paint1_linear_1_3485" x1="139.361" y1="9.01385" x2="139.361" y2="20.191" gradientUnits="userSpaceOnUse">
<stop offset="0.184683" stop-color="#BC025F"/>
<stop offset="1" stop-color="#C471ED"/>
</linearGradient>
<linearGradient id="paint2_linear_1_3485" x1="101730" y1="77868.4" x2="104547" y2="75850.3" gradientUnits="userSpaceOnUse">
<stop stop-color="#2A3035"/>
<stop offset="1" stop-color="#35404B"/>
</linearGradient>
<linearGradient id="paint3_linear_1_3485" x1="-442477" y1="-218340" x2="-442477" y2="-215050" gradientUnits="userSpaceOnUse">
<stop stop-color="#808D9C"/>
<stop offset="1" stop-color="#6E7379"/>
</linearGradient>
<linearGradient id="paint4_linear_1_3485" x1="33.3711" y1="23.9497" x2="30.0434" y2="4.48034" gradientUnits="userSpaceOnUse">
<stop stop-color="#BC3176"/>
<stop offset="1" stop-color="#96245D"/>
</linearGradient>
<linearGradient id="paint5_linear_1_3485" x1="32.1725" y1="2.06296" x2="0.808321" y2="1.84346" gradientUnits="userSpaceOnUse">
<stop stop-color="#D25292"/>
<stop offset="1" stop-color="#C471ED"/>
</linearGradient>
<linearGradient id="paint6_linear_1_3485" x1="29.5042" y1="1.78887" x2="20.8935" y2="31.9568" gradientUnits="userSpaceOnUse">
<stop stop-color="#BC025F"/>
<stop offset="1" stop-color="#800140"/>
</linearGradient>
</defs>
</svg>
