<svg width="65" height="65" viewBox="0 0 65 65" fill="none" xmlns="http://www.w3.org/2000/svg">
<path d="M5.7123 28.1722L9.39527 28.5555L9.17399 30.6587L5.49103 30.2754L0.137993 33.0256L0.405847 30.4797L3.8177 28.9573L0.796631 26.7653L1.05543 24.3054L5.7123 28.1722Z" fill="#F1F1F1"/>
<path d="M11.5428 13.3027C12.1326 13.663 12.6111 14.0954 12.9781 14.5998C13.338 15.0999 13.582 15.6402 13.7098 16.2208C13.8349 16.79 13.8399 17.3824 13.7247 17.9981C13.6095 18.6137 13.3737 19.2137 13.0174 19.798C12.6611 20.3823 12.2358 20.8664 11.7414 21.2504C11.2514 21.6274 10.7227 21.8938 10.1554 22.0497C9.58541 22.1942 8.99592 22.2206 8.38695 22.1288C7.77097 22.0327 7.16807 21.8044 6.57827 21.4441C5.98145 21.0795 5.50656 20.6493 5.15359 20.1534C4.7936 19.6533 4.55456 19.1208 4.43646 18.5559C4.32266 17.9839 4.32473 17.3958 4.44266 16.7914C4.56489 16.1801 4.80415 15.5823 5.16045 14.998C5.51675 14.4137 5.93857 13.9274 6.42592 13.5391C6.91326 13.1508 7.43491 12.8801 7.99087 12.727C8.55112 12.5668 9.13573 12.5326 9.7447 12.6244C10.3466 12.712 10.946 12.9381 11.5428 13.3027ZM10.3645 15.2351C10.0415 15.0377 9.70738 14.9061 9.36214 14.8401C9.01689 14.7741 8.68801 14.7761 8.37551 14.8461C8.06027 14.9047 7.76492 15.0335 7.48946 15.2324C7.21126 15.4199 6.97558 15.6721 6.7824 15.9889C6.58923 16.3056 6.47291 16.6307 6.43344 16.9641C6.38695 17.2932 6.40756 17.615 6.49528 17.9295C6.57597 18.2397 6.72455 18.5333 6.94102 18.8105C7.16178 19.0807 7.43365 19.3144 7.75663 19.5117C8.09366 19.7176 8.43831 19.8557 8.79058 19.926C9.13583 19.992 9.46607 19.9956 9.7813 19.937C10.1008 19.8713 10.3997 19.7447 10.6779 19.5572C10.9491 19.3653 11.1812 19.111 11.3744 18.7942C11.5676 18.4774 11.6874 18.1545 11.7339 17.8254C11.7734 17.492 11.7492 17.1681 11.6615 16.8536C11.5738 16.5391 11.4217 16.2433 11.2053 15.9661C10.9818 15.6846 10.7015 15.441 10.3645 15.2351Z" fill="#F1F1F1"/>
<path d="M21.5446 7.66407C21.8268 8.10907 22.0084 8.56454 22.0893 9.03049C22.1728 9.48505 22.1593 9.93301 22.049 10.3744C21.9343 10.8088 21.7252 11.2252 21.4218 11.6236C21.1254 12.0177 20.7374 12.3674 20.258 12.673C19.7716 12.983 19.2876 13.189 18.8059 13.291C18.3242 13.3929 17.8663 13.4016 17.4321 13.3171C16.9935 13.2256 16.5866 13.0455 16.2113 12.777C15.8317 12.5014 15.5007 12.1412 15.2184 11.6962L12.3008 7.09665L14.0725 5.96739L16.8975 10.4209C17.0254 10.6225 17.171 10.7983 17.3344 10.948C17.5046 11.0934 17.6882 11.2059 17.885 11.2855C18.0844 11.3537 18.2974 11.3741 18.524 11.3469C18.7576 11.3152 18.9994 11.2196 19.2496 11.0602C19.4997 10.9007 19.6852 10.724 19.8059 10.5298C19.9336 10.3312 20.009 10.127 20.0319 9.91707C20.0505 9.70019 20.0267 9.48587 19.9607 9.27409C19.8947 9.0623 19.7977 8.85559 19.6698 8.65395L16.8448 4.20044L18.627 3.06454L21.5446 7.66407Z" fill="#F1F1F1"/>
<path d="M30.6497 9.00039L28.2792 5.83935L27.5707 5.94413L28.0723 9.38155L26.0203 9.68504L24.7563 1.02419L28.0543 0.536452C28.4696 0.475032 28.8793 0.460273 29.2832 0.492174C29.6942 0.514715 30.0692 0.605044 30.4084 0.763161C30.7558 0.920074 31.0475 1.15186 31.2836 1.45853C31.5196 1.76519 31.674 2.16726 31.7466 2.66473C31.8323 3.2519 31.7455 3.76878 31.4862 4.21535C31.2269 4.66193 30.8289 5.01239 30.292 5.26675L33.0926 8.6391L30.6497 9.00039ZM29.6876 3.00672C29.6579 2.80284 29.5893 2.64636 29.4819 2.53728C29.3814 2.41884 29.2572 2.33723 29.1092 2.29246C28.9682 2.23833 28.8104 2.21168 28.6359 2.21251C28.4694 2.21213 28.3088 2.22338 28.1541 2.24626L27.0426 2.41065L27.3371 4.42906L28.3265 4.28274C28.4975 4.25745 28.6708 4.21933 28.8464 4.16837C29.0208 4.10925 29.1759 4.03215 29.3118 3.93708C29.4477 3.84201 29.5503 3.71853 29.6196 3.56664C29.6971 3.41355 29.7198 3.22691 29.6876 3.00672Z" fill="#F1F1F1"/>
<path d="M40.9693 9.44872C40.8666 9.77948 40.6632 10.0186 40.359 10.166C40.0627 10.3158 39.7534 10.3408 39.4312 10.2409C39.2662 10.1897 39.1188 10.1095 38.9891 10.0002C38.8647 9.90117 38.7634 9.78343 38.6852 9.64693C38.6069 9.51044 38.5572 9.3655 38.5359 9.21213C38.517 9.05088 38.5332 8.88756 38.5846 8.72218C38.6334 8.56468 38.7113 8.4248 38.8182 8.30254C38.9251 8.18027 39.0494 8.08501 39.1912 8.01675C39.3354 7.94061 39.488 7.89297 39.649 7.87383C39.8179 7.85713 39.9848 7.87436 40.1499 7.92554C40.4721 8.02545 40.7129 8.22099 40.8723 8.51216C41.0396 8.80578 41.072 9.11796 40.9693 9.44872Z" fill="#F1F1F1"/>
<path d="M45.5444 13.0173L51.1853 6.32167L52.8071 7.69195L48.3534 12.9785L50.937 15.1613L49.7499 16.5705L45.5444 13.0173Z" fill="#F1F1F1"/>
<path d="M59.2825 24.3478C58.667 24.6639 58.0484 24.8473 57.4268 24.898C56.8126 24.945 56.2249 24.8719 55.6637 24.6786C55.1136 24.4889 54.6066 24.1845 54.1428 23.7654C53.679 23.3462 53.2917 22.8322 52.9808 22.2235C52.6699 21.6147 52.4804 20.9991 52.4123 20.3768C52.3479 19.7617 52.3979 19.1713 52.5621 18.6055C52.7375 18.0433 53.0237 17.526 53.4206 17.0537C53.825 16.5775 54.3349 16.1814 54.9504 15.8653C55.5733 15.5455 56.1882 15.3639 56.7951 15.3207C57.4094 15.2738 57.9879 15.347 58.5306 15.5405C59.0772 15.7412 59.5768 16.0494 60.0295 16.465C60.486 16.8879 60.8697 17.4037 61.1806 18.0125C61.4915 18.6213 61.6847 19.235 61.7601 19.8536C61.8355 20.4722 61.7929 21.0588 61.6322 21.6135C61.4752 22.1756 61.1983 22.6928 60.8013 23.1651C60.4116 23.6337 59.9054 24.0279 59.2825 24.3478ZM58.2543 22.3345C58.5913 22.1614 58.8783 21.9445 59.1153 21.684C59.3522 21.4234 59.5227 21.1415 59.6267 20.8381C59.7418 20.5382 59.7868 20.2189 59.7617 19.8799C59.7477 19.5446 59.6564 19.2119 59.4879 18.8818C59.3193 18.5518 59.1034 18.283 58.8403 18.0756C58.5844 17.8644 58.2997 17.7144 57.986 17.6255C57.6797 17.5328 57.3519 17.5067 57.0026 17.5473C56.6571 17.5951 56.3157 17.7056 55.9787 17.8787C55.6269 18.0593 55.3289 18.2818 55.0847 18.5461C54.8478 18.8066 54.6717 19.0868 54.5566 19.3866C54.4453 19.6938 54.3966 20.0151 54.4106 20.3504C54.432 20.682 54.5269 21.0128 54.6955 21.3429C54.864 21.673 55.0762 21.9436 55.3321 22.1547C55.5952 22.3622 55.8837 22.5103 56.1973 22.5992C56.5109 22.6881 56.8424 22.7123 57.1917 22.6718C57.5483 22.6275 57.9025 22.5151 58.2543 22.3345Z" fill="#F1F1F1"/>
<path d="M56.0401 36.3022C55.8136 35.8761 55.6275 35.3754 55.4818 34.8C55.3361 34.2329 55.2599 33.6113 55.2531 32.9354C55.246 32.2347 55.3506 31.5864 55.5668 30.9903C55.7831 30.4024 56.0907 29.8919 56.4896 29.4585C56.8886 29.0334 57.3667 28.6981 57.9238 28.4526C58.4893 28.2069 59.1176 28.0801 59.8089 28.0721C60.5083 28.0639 61.1432 28.1761 61.7134 28.4086C62.2838 28.6493 62.7686 28.9816 63.1679 29.4057C63.5755 29.8297 63.8891 30.3289 64.1089 30.9034C64.3287 31.478 64.442 32.0991 64.4487 32.7668C64.4557 33.4592 64.3552 34.1034 64.1472 34.6994C63.9475 35.2953 63.6725 35.7808 63.3224 36.1558L61.7906 34.8381C62.0272 34.6292 62.2178 34.3549 62.3626 34.0152C62.5155 33.6755 62.5898 33.2912 62.5855 32.8626C62.5818 32.4917 62.5084 32.1504 62.3653 31.8388C62.2305 31.5271 62.0385 31.2572 61.7892 31.0293C61.5483 30.8013 61.2584 30.6233 60.9197 30.4953C60.5893 30.3755 60.2266 30.3179 59.8316 30.3224C59.4283 30.3271 59.0586 30.3891 58.7223 30.5085C58.3861 30.6278 58.0957 30.8001 57.851 31.0256C57.6147 31.2592 57.4283 31.5416 57.2917 31.873C57.1634 32.2125 57.1015 32.5965 57.1058 33.0252C57.1083 33.2725 57.1271 33.5072 57.1623 33.7294C57.2057 33.9515 57.2695 34.1568 57.3537 34.3455L58.946 34.327L58.9292 32.6578L60.6327 32.638L60.6691 36.2485L56.0401 36.3022Z" fill="#F1F1F1"/>
<path d="M54.7821 49.0113C54.1607 48.7088 53.6433 48.324 53.23 47.8569C52.8242 47.3934 52.53 46.8788 52.3476 46.3132C52.169 45.7585 52.1079 45.1693 52.1641 44.5456C52.2204 43.9219 52.3982 43.3022 52.6975 42.6867C52.9967 42.0712 53.3742 41.5488 53.83 41.1195C54.2821 40.6977 54.7832 40.3821 55.3332 40.173C55.8869 39.9748 56.4713 39.8924 57.0864 39.9258C57.7088 39.9628 58.3307 40.1325 58.9521 40.435C59.5809 40.7411 60.0945 41.1241 60.493 41.584C60.8989 42.0475 61.1875 42.5547 61.3587 43.1058C61.5263 43.6642 61.58 44.2498 61.52 44.8625C61.4563 45.4827 61.2748 46.1005 60.9756 46.716C60.6763 47.3315 60.3025 47.8557 59.8541 48.2886C59.4058 48.7215 58.9121 49.0406 58.3731 49.246C57.8305 49.4588 57.2517 49.5484 56.6367 49.515C56.0291 49.4853 55.4109 49.3173 54.7821 49.0113ZM55.7719 46.9757C56.1122 47.1413 56.4573 47.2405 56.8073 47.2733C57.1573 47.3061 57.4845 47.2728 57.789 47.1734C58.0973 47.085 58.3791 46.9287 58.6345 46.7045C58.8937 46.4914 59.1044 46.2179 59.2667 45.8842C59.4289 45.5505 59.5139 45.2159 59.5215 44.8803C59.5366 44.5483 59.4855 44.23 59.3683 43.9253C59.2585 43.6243 59.0827 43.3461 58.8409 43.0908C58.5955 42.843 58.3026 42.6363 57.9623 42.4706C57.6072 42.2978 57.251 42.1932 56.8936 42.1568C56.5436 42.124 56.2145 42.1518 55.9062 42.2402C55.5943 42.336 55.3088 42.4904 55.0496 42.7036C54.7978 42.9204 54.5908 43.1956 54.4285 43.5293C54.2663 43.863 54.1776 44.1959 54.1626 44.5279C54.1549 44.8635 54.2097 45.1836 54.3269 45.4882C54.444 45.7929 54.6236 46.0728 54.8654 46.3281C55.1146 46.587 55.4168 46.8028 55.7719 46.9757Z" fill="#F1F1F1"/>
<path d="M45.5628 52.5812C45.3566 52.3037 45.2838 51.9985 45.3444 51.6656C45.3984 51.3376 45.5608 51.0726 45.8315 50.8705C45.9702 50.767 46.1219 50.6949 46.2867 50.6541C46.44 50.6116 46.5947 50.5988 46.751 50.6157C46.9073 50.6326 47.0536 50.6775 47.1899 50.7504C47.3312 50.8299 47.4533 50.9391 47.5565 51.0778C47.6547 51.21 47.7216 51.3553 47.7571 51.5136C47.7927 51.672 47.7962 51.8287 47.7675 51.9836C47.7438 52.1451 47.6922 52.2966 47.6126 52.4382C47.5264 52.5847 47.414 52.7097 47.2753 52.8132C47.0045 53.0153 46.7047 53.0953 46.3756 53.0533C46.04 53.0161 45.7691 52.8588 45.5628 52.5812Z" fill="#F1F1F1"/>
<path d="M34.3242 55.4086L34.9638 59.0113L38.3183 58.4089L37.6787 54.8062L39.7571 54.433L41.2869 63.0503L39.2086 63.4235L38.6295 60.1616L35.275 60.764L35.8541 64.0259L33.7758 64.3991L32.2459 55.7818L34.3242 55.4086Z" fill="#F1F1F1"/>
<path d="M29.6772 55.4181L27.7146 63.9522L21.9887 62.6391L22.3906 60.8913L26.1317 61.7492L26.5004 60.1461L22.9638 59.335L23.3436 57.6836L26.8802 58.4947L27.2877 56.7228L23.33 55.8152L23.7348 54.0553L29.6772 55.4181Z" fill="#F1F1F1"/>
<path d="M17.7504 50.3518L17.3229 54.2856L17.911 54.6939L19.8897 51.837L21.5931 53.0195L16.6074 60.2175L13.8699 58.3171C13.5251 58.0778 13.2164 57.8082 12.9436 57.5084C12.6593 57.2107 12.4474 56.888 12.3079 56.5402C12.1617 56.1878 12.1071 55.8186 12.1441 55.4328C12.1811 55.047 12.3428 54.6474 12.6292 54.2339C12.9672 53.7459 13.383 53.4274 13.8767 53.2783C14.3703 53.1292 14.8996 53.1453 15.4646 53.3268L15.7226 48.9441L17.7504 50.3518ZM14.3638 55.393C14.2464 55.5624 14.1897 55.7238 14.1936 55.8771C14.1861 56.0324 14.221 56.1771 14.2984 56.3111C14.3643 56.4472 14.4612 56.5747 14.589 56.6935C14.7101 56.8077 14.8349 56.9094 14.9633 56.9985L15.886 57.6391L17.0479 55.9616L16.2266 55.3914C16.0847 55.2929 15.9323 55.2022 15.7695 55.1193C15.602 55.0431 15.4363 54.9933 15.2724 54.9699C15.1085 54.9464 14.9495 54.9665 14.7953 55.0301C14.6344 55.089 14.4905 55.21 14.3638 55.393Z" fill="#F1F1F1"/>
<path d="M14.4925 47.3065L7.21949 52.1723L3.96101 47.2791L5.45054 46.2826L7.57951 49.4796L8.94576 48.5655L6.93318 45.5433L8.34052 44.6017L10.3531 47.624L11.8632 46.6137L9.61101 43.2317L11.1108 42.2283L14.4925 47.3065Z" fill="#F1F1F1"/>
<path d="M8.13335 34.7286C8.47434 34.6714 8.7787 34.7457 9.04643 34.9515C9.31281 35.1492 9.47361 35.4147 9.52883 35.7481C9.55711 35.9188 9.55158 36.0869 9.51222 36.2522C9.47963 36.4081 9.41999 36.5518 9.3333 36.6833C9.24661 36.8149 9.13965 36.9247 9.0124 37.0129C8.87704 37.1024 8.72411 37.1615 8.55362 37.1901C8.39124 37.2173 8.2316 37.2107 8.07469 37.1701C7.91777 37.1296 7.77712 37.0612 7.65272 36.9651C7.5202 36.8703 7.40935 36.7552 7.32015 36.6198C7.22961 36.4762 7.1702 36.319 7.14192 36.1483C7.0867 35.8149 7.15322 35.5113 7.34149 35.2374C7.52841 34.9554 7.79236 34.7858 8.13335 34.7286Z" fill="#F1F1F1"/>
</svg>
